PathFileType	4	(X/Y/Z)	S01_0016_Gait_markers.trc
DataRate	CameraRate	NumFrames	NumMarkers	Units	OrigDataRate	OrigDataStartFrame	OrigNumFrames
250.000000	250.000000	4	54	mm	250.000000	178	356
Frame#	Time	HEAD_ANT			R_HEAD			L_HEAD			C7			R_BACK			L_BACK			STERNUM			R_ACROMION			R_HUM_PROX			R_HUM_ANT			R_HUM_POST			R_ELBOW_LAT			R_ELBOW_MED			R_FOREARM			R_WIRST_LAT			R_WRITS_MED			R_HAND			L_ACROMION			L_HUM_PROX			L_HUM_ANT			L_HUM_POST			L_ELBOW_LAT			L_ELBOW_MED			L_FOREARM			L_WRIST_LAT			L_WIRST_MED			L_HAND			R_ILIAC			SACRUM			L_ILIAC			R_GTROCH			R_THIGH__1			R_THIGH_2			R_THIGH_3			R_THIGH_4			R_SHANK_1			R_SHANK_2			R_SHANK_3			R_SHANK_4			R_HEEL			R_FOOT_LAT			R_FOOT_MED			L_GTROCH			L_THIGH_1			L_THIGH_2			L_THIGH_3			L_THIGH_4			L_SHANK_1			L_SHANK_2			L_SHANK_3			L_SHANK_4			L_HEEL			L_FOOT_LAT			L_FOOT_MED			
		X1	Y1	Z1	X2	Y2	Z2	X3	Y3	Z3	X4	Y4	Z4	X5	Y5	Z5	X6	Y6	Z6	X7	Y7	Z7	X8	Y8	Z8	X9	Y9	Z9	X10	Y10	Z10	X11	Y11	Z11	X12	Y12	Z12	X13	Y13	Z13	X14	Y14	Z14	X15	Y15	Z15	X16	Y16	Z16	X17	Y17	Z17	X18	Y18	Z18	X19	Y19	Z19	X20	Y20	Z20	X21	Y21	Z21	X22	Y22	Z22	X23	Y23	Z23	X24	Y24	Z24	X25	Y25	Z25	X26	Y26	Z26	X27	Y27	Z27	X28	Y28	Z28	X29	Y29	Z29	X30	Y30	Z30	X31	Y31	Z31	X32	Y32	Z32	X33	Y33	Z33	X34	Y34	Z34	X35	Y35	Z35	X36	Y36	Z36	X37	Y37	Z37	X38	Y38	Z38	X39	Y39	Z39	X40	Y40	Z40	X41	Y41	Z41	X42	Y42	Z42	X43	Y43	Z43	X44	Y44	Z44	X45	Y45	Z45	X46	Y46	Z46	X47	Y47	Z47	X48	Y48	Z48	X49	Y49	Z49	X50	Y50	Z50	X51	Y51	Z51	X52	Y52	Z52	X53	Y53	Z53	X54	Y54	Z54	

179	0.712	1012.117980957031	1711.81640625	-313.8445434570309	957.4087524414062	1660.3095703125	-233.4397430419918	952.2673950195312	1660.600463867188	-380.9629516601559	816.4549560546875	1492.576416015625	-302.4281921386715	740.3629760742188	1300.099365234375	-231.7449645996091	733.6708374023438	1302.222290039062	-369.6670227050778	988.7195434570312	1323.6083984375	-309.7339782714841	900.34716796875	1443.714965820312	-136.2203674316403	878.341064453125	1286.607299804688	-43.44099426269503	946.23291015625	1205.5869140625	-48.78831863403293	827.2575073242188	1199.237426757812	-21.72054481506321	882.5545043945312	1095.820190429688	-20.4580917358396	849.924072265625	1086.884887695312	-98.01013183593726	1025.721069335938	942.3814086914062	-42.67590332031229	1074.122924804688	891.3427124023438	-91.25021362304668	1021.100708007812	849.0068969726562	-45.41499328613262	1110.030395507812	808.5743408203125	-41.97119903564435	884.0409545898438	1445.068481445312	-473.6666259765622	841.5023803710938	1282.2802734375	-568.7299804687497	897.6559448242188	1197.9521484375	-578.1807861328123	774.6849975585938	1209.751708984375	-589.7602539062498	827.5177001953125	1100.767211914063	-605.3253784179685	778.149658203125	1097.716186523438	-544.2116088867185	927.7582397460938	923.1337280273439	-597.9980468749998	963.6892700195312	863.0952758789064	-548.5900878906248	912.3014526367188	841.6090087890626	-607.7140502929685	987.9564208984375	782.8256835937501	-596.0358276367185	861.83642578125	1042.609252929688	-137.919006347656	751.2900390625	1017.345153808594	-322.3985595703123	880.7410888671875	1038.642578125	-484.4765930175779	800.1023559570312	915.3031005859375	-131.5380706787107	744.9577026367188	650.3980712890625	-158.5139312744139	802.9961547851562	646.6656494140625	-149.1758575439452	775.6161499023438	548.8734741210938	-185.4678649902343	716.7630004882812	576.02099609375	-181.9129791259764	601.59228515625	371.5986938476563	-192.1051177978515	643.6973876953125	330.5606994628907	-204.942901611328	605.771240234375	256.7554931640626	-228.4041748046874	550.2669677734375	287.6224670410157	-222.908706665039	431.59765625	116.7273254394532	-316.2074584960938	567.16552734375	18.60374069213873	-238.9146575927734	631.8077392578125	32.88762664794929	-331.3012390136719	858.93701171875	921.6192016601564	-494.5042724609373	1033.947143554688	670.3336181640626	-471.1637573242186	978.6875610351562	665.4622802734376	-491.1132507324217	1000.015563964844	568.5697021484376	-452.0548400878905	1057.142333984375	596.4921264648439	-440.1534423828124	1120.974609375	336.1682739257814	-433.9716491699218	1074.679809570312	296.4234313964845	-436.8088684082031	1102.452880859375	215.0543060302735	-418.0805969238281	1159.368408203125	243.4889373779298	-410.8518676757812	1131.0771484375	28.48897933959968	-343.7614440917969	1307.4931640625	63.01295089721689	-405.8639831542969	1332.119140625	92.33502960205085	-312.4792175292969	
180	0.716	1017.939575195312	1711.427490234375	-314.2208251953121	963.3349609375	1659.969116210938	-233.9376220703121	958.0640869140625	1660.149169921875	-381.5412597656247	822.4737548828125	1492.0166015625	-302.7216186523434	746.4395751953125	1299.4375	-232.1553955078122	739.8869018554688	1301.453491210938	-369.9377746582028	994.994873046875	1323.14404296875	-309.9017333984372	906.0966186523438	1443.38720703125	-136.6693267822262	883.953369140625	1286.169067382812	-43.87325668334933	951.8204345703125	1205.106567382812	-48.95657348632785	832.825439453125	1198.94775390625	-22.45391273498509	888.1092529296875	1095.26806640625	-20.91998291015601	855.661865234375	1086.558715820312	-98.40648651123023	1030.787231445312	941.7239379882812	-42.21144485473612	1079.274169921875	890.4403076171875	-90.88970947265605	1026.002075195312	848.2244262695312	-44.99141693115215	1114.858032226562	807.5475463867188	-41.17640686035138	890.2229614257812	1444.375732421875	-473.9901123046872	847.7803344726562	1281.562622070313	-568.9806518554684	903.8289184570312	1197.086059570313	-578.330871582031	780.9902954101562	1208.977661132813	-589.8350830078123	833.8695068359375	1099.936157226563	-605.1987304687498	784.4287719726562	1096.931518554688	-544.4359741210935	933.5826416015625	922.0728759765626	-598.1159667968748	969.4031982421875	862.0430908203126	-548.5079345703123	918.1851806640625	840.7376098632814	-607.7499999999998	993.4851684570312	781.7304077148439	-596.0178222656248	868.7633666992188	1042.354736328125	-137.8054504394529	757.898193359375	1016.814819335938	-322.5416870117185	887.191650390625	1038.308837890625	-484.7692565917966	806.1439208984375	914.6119384765625	-131.7805023193357	750.8258666992188	649.8733520507812	-158.4767761230467	808.7335205078125	646.2015380859375	-149.1329193115233	781.4435424804688	548.4453735351562	-185.1096038818358	722.5177612304688	575.4832763671875	-181.8075103759764	606.0308837890625	372.2494201660157	-191.6754608154296	647.60400390625	330.7768249511719	-204.4634857177734	608.6974487304688	257.2825622558594	-227.9244384765624	553.7645263671875	288.9508361816407	-221.9655609130859	433.0607604980469	119.4315490722657	-315.1923522949219	567.2611694335938	18.72048377990728	-238.8946990966797	631.814453125	32.94550704956062	-331.1159973144531	865.5259399414062	921.4097900390626	-494.6010131835935	1041.546020507812	670.2393188476564	-470.461944580078	986.393798828125	665.3396606445314	-490.7706298828123	1007.84375	568.5505981445314	-451.6511840820311	1064.840698242188	596.4666748046876	-439.1749877929686	1126.859130859375	334.8754272460939	-432.9454650878906	1080.402587890625	295.3636474609376	-435.3680114746093	1106.560302734375	214.0563354492188	-417.2518005371093	1164.065551757812	241.6959838867188	-409.6786193847656	1132.454345703125	28.11758804321297	-343.5043640136719	1309.223754882812	60.3801155090333	-404.7264404296875	1334.151245117188	89.02960968017585	-310.4137573242188	
181	0.72	1023.667541503906	1710.921875	-314.5899047851559	969.0980834960938	1659.509643554688	-234.3851776123043	963.8110961914062	1659.494018554688	-381.9581604003903	828.1793212890625	1491.309936523438	-303.4421997070309	752.6474609375	1298.81884765625	-232.7017669677732	746.1396484375	1300.659912109375	-370.457580566406	1001.248718261719	1322.725219726562	-310.0571594238278	912.0057983398438	1442.981811523438	-137.1323394775387	889.7032470703125	1285.730712890625	-44.09490203857393	957.3843994140625	1204.682983398438	-49.06499862670871	838.200927734375	1198.628540039062	-22.8946399688718	893.3967895507812	1094.990844726562	-21.13219642639136	861.3543701171875	1086.223022460938	-98.8437347412107	1035.814819335938	940.9837646484375	-41.87014770507792	1084.343994140625	889.4456176757812	-90.33057403564433	1030.744995117188	847.5530395507812	-44.57996368408185	1119.55859375	806.630859375	-40.41794967651349	896.314697265625	1443.842895507812	-474.4996337890622	854.0523681640625	1280.862915039063	-569.2902832031247	910.1097412109375	1196.389404296875	-578.5053100585935	787.2501831054688	1208.1572265625	-589.9569702148435	839.785400390625	1099.212524414063	-605.4066772460935	790.719482421875	1096.2255859375	-544.4328613281248	939.5345458984375	921.1431884765626	-598.018615722656	975.020263671875	861.0447387695314	-547.6430664062498	923.8777465820312	839.7201538085939	-607.5744628906248	999.3379516601562	780.6405639648439	-595.8983764648435	875.9061279296875	1041.873168945312	-137.8538818359373	764.4535522460938	1016.203369140625	-322.6612548828123	893.5813598632812	1037.964965820312	-484.6875305175779	812.160400390625	914.0424194335938	-131.9753265380857	756.752685546875	649.566650390625	-158.2227630615233	814.6940307617188	645.6797485351562	-148.9244995117186	787.2643432617188	547.8186645507812	-184.8119506835936	728.5090942382812	575.0498657226562	-181.6967926025389	610.5397338867188	372.9913024902344	-191.0634613037109	651.7325439453125	331.0774536132813	-203.459259033203	611.9901123046875	257.8473510742188	-227.0288848876953	557.3170776367188	290.0766906738282	-221.0459594726562	434.7843933105469	122.1693191528321	-313.9234924316406	567.357666015625	18.81849479675298	-238.8633117675781	631.843994140625	33.02638244628913	-330.9858703613281	872.1135864257812	921.0540771484376	-494.5994567871091	1049.222778320312	670.3354492187501	-469.4272155761717	994.2950439453125	665.9758300781251	-491.7999267578123	1015.618286132812	568.5255126953126	-450.9972534179686	1072.577392578125	596.8176879882814	-438.3807373046874	1132.569580078125	333.5735168457032	-431.9776306152343	1085.5517578125	294.6176757812501	-434.7702026367187	1110.704467773438	212.955307006836	-416.3210754394531	1168.315185546875	240.0285949707032	-408.5293579101562	1133.361206054688	27.57997131347664	-342.9706115722656	1310.883056640625	56.92384338378915	-403.2122192382812	1336.03466796875	84.95818328857429	-308.4902954101562	
182	0.724	1029.444458007812	1710.448608398438	-314.9664611816402	974.7400512695312	1659.137939453125	-234.9675903320309	969.61962890625	1659.108276367188	-382.5643920898434	834.0755615234375	1490.650756835938	-303.8849182128903	758.8982543945312	1298.15966796875	-233.0596160888669	752.498779296875	1299.880493164062	-370.8710632324216	1007.468566894531	1322.506469726562	-310.4225158691403	917.9158325195312	1442.608764648438	-137.4024353027341	895.3853149414062	1285.311767578125	-44.48448562622042	962.9127197265625	1204.220458984375	-49.14918136596653	843.532958984375	1198.356079101562	-23.71049308776829	898.923095703125	1094.599609375	-21.60564231872534	866.9614868164062	1085.907958984375	-99.29453277587866	1040.821166992188	940.2175903320312	-41.43603134155253	1089.48388671875	888.5658569335938	-89.86151885986308	1035.480834960938	846.7932739257812	-44.17279052734357	1124.128540039062	805.5656127929688	-39.58027648925763	902.4766845703125	1443.137084960938	-474.719573974609	860.4193115234375	1280.025756835938	-569.4611206054684	916.5545043945312	1195.684448242188	-578.6147460937498	793.6024780273438	1207.363525390625	-590.144104003906	845.9725952148438	1098.483520507813	-605.5658569335935	796.98681640625	1095.440307617188	-544.268371582031	945.5790405273438	920.2894287109376	-598.0304565429685	981.1774291992188	860.0772094726564	-548.493957519531	929.6827392578125	838.2648925781251	-606.645080566406	1005.089050292969	779.6415405273439	-595.8510742187498	880.9992065429688	1041.128662109375	-138.2232971191404	770.8997192382812	1015.745666503906	-322.7790222167966	899.8189086914062	1037.646240234375	-484.7243041992185	818.2159423828125	913.4580688476562	-132.3260955810545	762.7880249023438	648.9197998046875	-158.2091979980467	820.789794921875	645.1272583007812	-148.994171142578	793.3829345703125	547.3001098632812	-184.3438720703124	734.694091796875	574.5244140625	-181.321319580078	615.1235961914062	373.7333068847657	-190.4823455810546	655.8070068359375	331.0615234375001	-203.1168060302734	615.296630859375	258.5231018066407	-226.3750915527343	561.0046997070312	291.5079040527344	-220.5396423339843	436.4667663574219	125.1267929077149	-312.8370361328125	567.466552734375	18.90637016296392	-238.8593902587891	631.9009399414062	33.10002517700202	-330.8150634765625	878.7102661132812	920.6652221679689	-494.7435913085935	1056.934814453125	670.4204101562501	-468.8747253417967	1002.11181640625	665.1397094726564	-489.8605957031248	1024.015502929688	568.1077880859376	-450.3285827636718	1080.2734375	596.9927368164064	-437.5551452636718	1138.041381835938	332.3946228027345	-430.9196472167968	1090.391479492188	294.0433654785157	-433.8321838378906	1114.731201171875	211.8927459716798	-415.1559753417968	1172.512939453125	238.4029693603516	-407.0390930175781	1134.360107421875	28.59274482727058	-342.5726013183594	1312.3564453125	52.83146667480478	-402.1683044433594	1338.146606445312	80.13391113281257	-306.8211059570312	
